<svg width="65" height="64" viewBox="0 0 65 64" fill="none" xmlns="http://www.w3.org/2000/svg">
<path d="M12.4985 54.1757L8.04059 4.15605H57.042L52.5781 54.1677L32.5115 59.7312L12.4985 54.1757Z" fill="#1572B6"/>
<path d="M32.5413 55.4797L48.7573 50.9841L52.5722 8.2468H32.5413V55.4797Z" fill="#33A9DC"/>
<path d="M32.5413 26.3682H40.6592L41.219 20.0863H32.5413V13.9512H47.9237L47.7768 15.5966L46.2703 32.5033H32.5413V26.3682Z" fill="white"/>
<path d="M32.579 42.3005L32.5512 42.3084L25.7194 40.4625L25.2828 35.5699H19.1238L19.9833 45.2023L32.5492 48.6916L32.579 48.6837V42.3005Z" fill="#EBEBEB"/>
<path d="M40.1372 32.2433L39.3989 40.4586L32.5572 42.3044V48.6876L45.133 45.2023L45.2263 44.1662L46.2922 32.2433H40.1372Z" fill="white"/>
<path d="M32.5631 13.9512V20.0863H17.7444L17.6213 18.7068L17.3415 15.5966L17.1946 13.9512H32.5631Z" fill="#EBEBEB"/>
<path d="M32.5413 26.3683V32.5034H25.7949L25.6718 31.1239L25.3939 28.0137L25.2471 26.3683H32.5413Z" fill="#EBEBEB"/>
</svg>
