<svg width="97" height="86" viewBox="0 0 97 86" fill="none" xmlns="http://www.w3.org/2000/svg">
<path d="M49.104 32.8763C45.4357 33.8143 42.9319 34.5178 39.3221 35.4558C38.4486 35.6902 38.3905 35.7491 37.6351 34.8696C36.7616 33.8731 36.1213 33.2281 34.8984 32.6426C31.2301 30.8252 27.6784 31.3529 24.3595 33.5221C20.4003 36.1017 18.3613 39.9121 18.4205 44.6609C18.4786 49.3508 21.6821 53.2201 26.2812 53.8652C30.2404 54.3936 33.5593 52.9857 36.1782 49.9959C36.7031 49.3512 37.168 48.6476 37.7505 47.8266H26.5121C25.2892 47.8266 24.9983 47.0645 25.4058 46.068C26.1627 44.2506 27.5603 41.2022 28.3753 39.6781C28.5005 39.3957 28.705 39.1563 28.9637 38.9896C29.2224 38.8229 29.5239 38.7362 29.831 38.7401H51.0253C50.9087 40.3231 50.9087 41.9058 50.6759 43.4889C50.0726 47.6633 48.4301 51.6161 45.9014 54.9794C41.709 60.5477 36.2356 64.0063 29.3069 64.9443C23.6007 65.7064 18.3021 64.5925 13.6441 61.075C11.5738 59.5492 9.84552 57.602 8.57154 55.3597C7.29755 53.1175 6.50637 50.6305 6.24941 48.0603C5.49251 41.6703 7.35571 35.925 11.1979 30.8829C15.3326 25.4309 20.806 21.9723 27.5007 20.741C32.9741 19.7445 38.2143 20.3892 42.9307 23.6135C45.947 25.633 48.2982 28.5106 49.6851 31.8798C50.0356 32.4075 49.8024 32.7008 49.104 32.8763Z" fill="#5DC9E1"/>
<path d="M68.3767 65.2961C63.078 65.1787 58.2453 63.6546 54.1684 60.137C50.7772 57.2594 48.542 53.2376 47.88 48.8224C46.8303 42.1976 48.6369 36.3353 52.5965 31.1177C56.847 25.4898 61.9709 22.5585 68.8996 21.3272C74.8386 20.2703 80.4286 20.858 85.4941 24.3171C90.094 27.4828 92.9469 31.7624 93.7041 37.3903C94.6938 45.3048 92.4231 51.7533 87.0082 57.2642C83.2118 61.1319 78.339 63.7485 73.0339 64.7681C71.4627 65.0617 69.8908 65.1202 68.3767 65.2961ZM82.2344 41.6118C82.2131 40.9641 82.1548 40.3182 82.0597 39.6773C81.01 33.8735 75.7132 30.5904 70.1818 31.8802C64.7669 33.1114 61.2733 36.5701 59.9923 42.081C59.463 44.267 59.7086 46.5704 60.6866 48.5935C61.6647 50.6165 63.3138 52.2322 65.3491 53.1612C68.5514 54.5684 71.754 54.3925 74.8401 52.8094C79.4396 50.4054 81.9435 46.6535 82.2344 41.6118Z" fill="#5DC9E1"/>
</svg>
