<svg width="86" height="85" viewBox="0 0 86 85" fill="none" xmlns="http://www.w3.org/2000/svg">
<path d="M16.275 72.2207L10.3284 5.52789H75.6689L69.7145 72.2101L42.959 79.6281L16.275 72.2207Z" fill="#E44F26"/>
<path d="M42.9987 73.9594L64.6201 67.9652L69.7065 10.9821H42.9987V73.9594Z" fill="#F1662A"/>
<path d="M42.9987 35.7158H32.1748L31.4285 27.3398H42.9987V19.1597H22.4888L22.6846 21.3562L24.6933 43.8959H42.9987V35.7158Z" fill="#EBEBEB"/>
<path d="M42.9987 56.9587L42.9616 56.9693L33.8526 54.5108L33.2704 47.9873H25.0585L26.2044 60.8278L42.9616 65.4803L42.9987 65.4697V56.9587Z" fill="#EBEBEB"/>
<path d="M42.9696 35.7157V43.8959H53.0419L52.0945 54.5054L42.9696 56.9666V65.4776L59.74 60.8278L59.8618 59.4463L61.7831 37.9123L61.9842 35.7157H42.9696Z" fill="white"/>
<path d="M42.9696 19.1597V27.3398H62.7279L62.892 25.5032L63.2651 21.3562L63.4609 19.1597H42.9696Z" fill="white"/>
</svg>
