<svg width="71" height="72" viewBox="0 0 71 72" fill="none" xmlns="http://www.w3.org/2000/svg">
<path d="M4.58325 5.06949H66.5099V66.9961H4.58325V5.06949Z" fill="#F5DE19"/>
<path d="M46.1824 53.4497C46.7101 54.5214 47.5298 55.4223 48.5472 56.0484C49.5646 56.6745 50.7382 57.0003 51.9328 56.9883C54.3435 56.9883 55.885 55.783 55.885 54.1132C55.885 52.1227 54.3015 51.4105 51.6475 50.2494L50.1922 49.6257C45.99 47.8365 43.2033 45.5961 43.2033 40.8587C43.2033 36.4951 46.5208 33.1709 51.7249 33.1709C53.4095 33.0493 55.0927 33.4263 56.5644 34.255C58.0362 35.0837 59.2314 36.3274 60.0009 37.8309L55.4515 40.7392C55.1552 39.9937 54.6393 39.3559 53.9721 38.9104C53.305 38.4648 52.5182 38.2326 51.716 38.2445C51.3661 38.2095 51.0126 38.2477 50.6783 38.3568C50.3439 38.4659 50.0359 38.6435 49.7739 38.8782C49.512 39.1129 49.3018 39.3996 49.1568 39.72C49.0117 40.0404 48.935 40.3875 48.9315 40.7392C48.9315 42.4842 50.013 43.192 52.51 44.2779L53.9653 44.9016C58.9106 47.0226 61.7061 49.1834 61.7061 54.0424C61.7061 59.2818 57.5902 62.1526 52.0633 62.1526C49.9098 62.2898 47.7626 61.8009 45.8808 60.7448C43.999 59.6887 42.4631 58.1106 41.4583 56.201L46.1824 53.4497ZM25.625 53.9539C26.5384 55.5751 27.37 56.9463 29.3694 56.9463C31.2802 56.9463 32.4878 56.1988 32.4878 53.2904V33.5027H38.3067V53.3678C38.3067 59.3924 34.768 62.1349 29.6171 62.1349C27.7963 62.2344 25.9881 61.7806 24.43 60.8333C22.872 59.8859 21.6371 58.4892 20.8876 56.8269L25.625 53.9539Z" fill="black"/>
</svg>
